<?xml version="1.0"?>
<svg xmlns="http://www.w3.org/2000/svg" xmlns:xlink="http://www.w3.org/1999/xlink" xmlns:svgjs="http://svgjs.com/svgjs" version="1.1" width="512" height="512" x="0" y="0" viewBox="0 0 512 512" style="enable-background:new 0 0 512 512" xml:space="preserve" class=""><g><path xmlns="http://www.w3.org/2000/svg" d="m416 512h-320c-53.023438 0-96-42.976562-96-96v-320c0-53.023438 42.976562-96 96-96h320c53.023438 0 96 42.976562 96 96v320c0 53.023438-42.976562 96-96 96zm0 0" fill="#f9f1f0" data-original="#f5e6fe" style="" class=""/><g xmlns="http://www.w3.org/2000/svg" fill="#d9a4fc"><path d="m170.65625 170.671875c0 11.777344-9.550781 21.328125-21.328125 21.328125s-21.328125-9.550781-21.328125-21.328125 9.550781-21.328125 21.328125-21.328125 21.328125 9.550781 21.328125 21.328125zm0 0" fill="#f8afa6" data-original="#d9a4fc" style="" class=""/><path d="m170.65625 256c0 11.777344-9.550781 21.328125-21.328125 21.328125s-21.328125-9.550781-21.328125-21.328125 9.550781-21.328125 21.328125-21.328125 21.328125 9.550781 21.328125 21.328125zm0 0" fill="#f8afa6" data-original="#d9a4fc" style="" class=""/><path d="m170.65625 341.328125c0 11.777344-9.550781 21.328125-21.328125 21.328125s-21.328125-9.550781-21.328125-21.328125 9.550781-21.328125 21.328125-21.328125 21.328125 9.550781 21.328125 21.328125zm0 0" fill="#f8afa6" data-original="#d9a4fc" style="" class=""/></g><path xmlns="http://www.w3.org/2000/svg" d="m373.328125 181.328125h-160c-5.886719 0-10.671875-4.769531-10.671875-10.671875s4.769531-10.65625 10.671875-10.65625h160c5.886719 0 10.671875 4.769531 10.671875 10.671875s-4.785156 10.65625-10.671875 10.65625zm0 0" fill="#f79489" data-original="#be63f9" style="" class=""/><path xmlns="http://www.w3.org/2000/svg" d="m373.328125 266.671875h-160c-5.886719 0-10.671875-4.769531-10.671875-10.671875 0-5.886719 4.769531-10.671875 10.671875-10.671875h160c5.886719 0 10.671875 4.769531 10.671875 10.671875 0 5.886719-4.785156 10.671875-10.671875 10.671875zm0 0" fill="#f79489" data-original="#be63f9" style="" class=""/><path xmlns="http://www.w3.org/2000/svg" d="m373.328125 352h-160c-5.886719 0-10.671875-4.769531-10.671875-10.671875 0-5.886719 4.769531-10.671875 10.671875-10.671875h160c5.886719 0 10.671875 4.769531 10.671875 10.671875s-4.785156 10.671875-10.671875 10.671875zm0 0" fill="#f79489" data-original="#be63f9" style="" class=""/></g></svg>
