<?xml version="1.0"?>
<svg xmlns="http://www.w3.org/2000/svg" xmlns:xlink="http://www.w3.org/1999/xlink" xmlns:svgjs="http://svgjs.com/svgjs" version="1.1" width="512" height="512" x="0" y="0" viewBox="0 0 512 512" style="enable-background:new 0 0 512 512" xml:space="preserve" class=""><g><path xmlns="http://www.w3.org/2000/svg" d="m416 512h-320c-53.023438 0-96-42.976562-96-96v-320c0-53.023438 42.976562-96 96-96h320c53.023438 0 96 42.976562 96 96v320c0 53.023438-42.976562 96-96 96zm0 0" fill="#f9f1f0" data-original="#ffe6e2" style="" class=""/><path xmlns="http://www.w3.org/2000/svg" d="m352 160h-192c-17.648438 0-32 14.351562-32 32v160c0 17.648438 14.351562 32 32 32h192c17.648438 0 32-14.351562 32-32v-160c0-17.648438-14.351562-32-32-32zm10.671875 192c0 5.886719-4.785156 10.671875-10.671875 10.671875h-192c-5.886719 0-10.671875-4.785156-10.671875-10.671875v-116.910156h213.328125v116.910156zm0 0" fill="#e8b4b8" data-original="#fc573b" style="" class=""/><g xmlns="http://www.w3.org/2000/svg" fill="#fd907e"><path d="m192 128h-10.671875c-5.886719 0-10.671875 4.769531-10.671875 10.671875v42.671875c0 5.886719 4.769531 10.671875 10.671875 10.671875h10.671875c5.886719 0 10.671875-4.769531 10.671875-10.671875v-42.671875c0-5.902344-4.785156-10.671875-10.671875-10.671875zm0 0" fill="#f79489" data-original="#fd907e" style="" class=""/><path d="m330.671875 128h-10.671875c-5.886719 0-10.671875 4.769531-10.671875 10.671875v42.671875c0 5.886719 4.785156 10.65625 10.671875 10.65625h10.671875c5.886719 0 10.671875-4.769531 10.671875-10.671875v-42.65625c-.015625-5.902344-4.785156-10.671875-10.671875-10.671875zm0 0" fill="#f79489" data-original="#fd907e" style="" class=""/></g></g></svg>
