<?xml version="1.0"?>
<svg xmlns="http://www.w3.org/2000/svg" xmlns:xlink="http://www.w3.org/1999/xlink" xmlns:svgjs="http://svgjs.com/svgjs" version="1.1" width="512" height="512" x="0" y="0" viewBox="0 0 512 512" style="enable-background:new 0 0 512 512" xml:space="preserve" class=""><g><path xmlns="http://www.w3.org/2000/svg" d="m416 512h-320c-53.023438 0-96-42.976562-96-96v-320c0-53.023438 42.976562-96 96-96h320c53.023438 0 96 42.976562 96 96v320c0 53.023438-42.976562 96-96 96zm0 0" fill="#f9f1f0" data-original="#ffe6e2" style="" class=""/><path xmlns="http://www.w3.org/2000/svg" d="m344 138.671875h-176c-16.175781 0-29.328125 13.152344-29.328125 29.328125v176c0 16.175781 13.152344 29.328125 29.328125 29.328125h176c16.175781 0 29.328125-13.152344 29.328125-29.328125v-176c0-16.175781-13.152344-29.328125-29.328125-29.328125zm-27.121094 183.535156c-2.078125 2.082031-4.816406 3.121094-7.535156 3.121094-2.734375 0-5.457031-1.039063-7.535156-3.121094l-53.328125-53.328125c-2-2-3.121094-4.703125-3.121094-7.535156v-72c0-5.886719 4.769531-10.671875 10.671875-10.671875 5.890625 0 10.671875 4.769531 10.671875 10.671875v67.585938l50.207031 50.207031c4.128906 4.160156 4.128906 10.910156-.03125 15.070312zm0 0" fill="#f8afa6" data-original="#fc573b" style="" class=""/></g></svg>
