<?xml version="1.0"?>
<svg xmlns="http://www.w3.org/2000/svg" xmlns:xlink="http://www.w3.org/1999/xlink" xmlns:svgjs="http://svgjs.com/svgjs" version="1.1" width="512" height="512" x="0" y="0" viewBox="0 0 512 512" style="enable-background:new 0 0 512 512" xml:space="preserve" class=""><g><path xmlns="http://www.w3.org/2000/svg" d="m416 512h-320c-53.023438 0-96-42.976562-96-96v-320c0-53.023438 42.976562-96 96-96h320c53.023438 0 96 42.976562 96 96v320c0 53.023438-42.976562 96-96 96zm0 0" fill="#f9f1f0" data-original="#e3f8fa" style="" class=""/><path xmlns="http://www.w3.org/2000/svg" d="m160 224v130.671875c0 16.207031 13.121094 29.328125 29.328125 29.328125h133.328125c16.222656 0 29.34375-13.121094 29.34375-29.328125v-130.671875zm64 106.671875c0 5.871094-4.800781 10.671875-10.671875 10.671875s-10.671875-4.800781-10.671875-10.671875v-64c0-5.871094 4.800781-10.671875 10.671875-10.671875s10.671875 4.800781 10.671875 10.671875zm42.671875 0c0 5.871094-4.800781 10.671875-10.671875 10.671875s-10.671875-4.800781-10.671875-10.671875v-64c0-5.871094 4.800781-10.671875 10.671875-10.671875s10.671875 4.800781 10.671875 10.671875zm42.65625 0c0 5.871094-4.800781 10.671875-10.671875 10.671875s-10.671875-4.800781-10.671875-10.671875v-64c.015625-5.871094 4.816406-10.671875 10.6875-10.671875s10.671875 4.800781 10.671875 10.671875v64zm-85.328125-181.34375h64v10.671875h21.328125v-10.671875c0-11.726563-9.601563-21.328125-21.328125-21.328125h-64c-11.726562 0-21.328125 9.601562-21.328125 21.328125v10.671875h21.328125zm0 0" fill="#f79489" data-original="#26c6da" style="" class=""/><path xmlns="http://www.w3.org/2000/svg" d="m373.328125 189.328125v26.671875c0 4.367188-3.632813 8-8 8h-218.65625c-4.367187 0-8-3.632812-8-8v-26.671875c0-16.207031 13.121094-29.328125 29.328125-29.328125h176c16.207031 0 29.328125 13.121094 29.328125 29.328125zm0 0" fill="#f8afa6" data-original="#8ce1eb" style="" class=""/></g></svg>
