<?xml version="1.0"?>
<svg xmlns="http://www.w3.org/2000/svg" xmlns:xlink="http://www.w3.org/1999/xlink" xmlns:svgjs="http://svgjs.com/svgjs" version="1.1" width="512" height="512" x="0" y="0" viewBox="0 0 512 512" style="enable-background:new 0 0 512 512" xml:space="preserve" class=""><g><path xmlns="http://www.w3.org/2000/svg" d="m416 512h-320c-53.023438 0-96-42.976562-96-96v-320c0-53.023438 42.976562-96 96-96h320c53.023438 0 96 42.976562 96 96v320c0 53.023438-42.976562 96-96 96zm0 0" fill="#f9f1f0" data-original="#e3f8fa" style="" class=""/><path xmlns="http://www.w3.org/2000/svg" d="m224 181.328125c-5.886719 0-10.671875-4.769531-10.671875-10.671875v-10.65625c0-17.648438 14.351563-32 32-32h114.671875c5.886719 0 10.671875 4.769531 10.671875 10.671875s-4.785156 10.65625-10.671875 10.65625h-114.671875c-5.886719 0-10.671875 4.785156-10.671875 10.671875v10.671875c.015625 5.886719-4.769531 10.65625-10.65625 10.65625zm0 0" fill="#f8afa6" data-original="#8ce1eb" style="" class=""/><path xmlns="http://www.w3.org/2000/svg" d="m282.671875 352h-37.328125c-17.648438 0-32-14.351562-32-32v-21.328125c-.015625-5.902344 4.769531-10.671875 10.65625-10.671875s10.671875 4.769531 10.671875 10.671875v21.328125c0 5.886719 4.785156 10.671875 10.671875 10.671875h37.328125c5.886719 0 10.671875 4.769531 10.671875 10.671875-.015625 5.886719-4.785156 10.65625-10.671875 10.65625zm0 0" fill="#f8afa6" data-original="#8ce1eb" style="" class=""/><g xmlns="http://www.w3.org/2000/svg" fill="#26c6da"><path d="m199.535156 284.878906c-3.054687 3.058594-7.632812 3.96875-11.632812 2.320313-3.980469-1.648438-6.574219-5.535157-6.574219-9.855469v-32h-42.65625c-5.902344-.015625-10.671875-4.785156-10.671875-10.671875s4.769531-10.671875 10.671875-10.671875h42.671875v-32c0-4.320312 2.59375-8.207031 6.578125-9.855469 3.980469-1.648437 8.574219-.738281 11.628906 2.320313l42.671875 42.671875c4.160156 4.160156 4.160156 10.910156 0 15.085937zm0 0" fill="#f79489" data-original="#26c6da" style="" class=""/><path d="m355.871094 129.039062-64.09375 21.359376c-8.640625 3.007812-14.449219 11.136718-14.449219 20.257812v192c0 11.757812 9.566406 21.328125 21.328125 21.328125 2.304688 0 4.464844-.320313 6.800781-1.039063l64.109375-21.378906c8.625-2.992187 14.433594-11.132812 14.433594-20.238281v-192c0-14.046875-13.808594-24.671875-28.128906-20.289063zm0 0" fill="#f79489" data-original="#26c6da" style="" class=""/></g></g></svg>
