<?xml version="1.0"?>
<svg xmlns="http://www.w3.org/2000/svg" xmlns:xlink="http://www.w3.org/1999/xlink" xmlns:svgjs="http://svgjs.com/svgjs" version="1.1" width="512" height="512" x="0" y="0" viewBox="0 0 32 32" style="enable-background:new 0 0 512 512" xml:space="preserve" class=""><g><g xmlns="http://www.w3.org/2000/svg" id="BG"><path d="m26 32h-20c-3.314 0-6-2.686-6-6v-20c0-3.314 2.686-6 6-6h20c3.314 0 6 2.686 6 6v20c0 3.314-2.686 6-6 6z" fill="#f9f1f0" data-original="#e3f8fa" style="" class=""/></g><g xmlns="http://www.w3.org/2000/svg" id="Layer_1"><path d="m22.167 10h-12.334c-1.011 0-1.833.822-1.833 1.833v8.333c0 1.012.822 1.834 1.833 1.834h12.333c1.012 0 1.834-.822 1.834-1.833v-8.333c0-1.012-.822-1.834-1.833-1.834z" fill="#f79489" data-original="#26c6da" style="" class=""/><g fill="#8ce1eb"><path d="m21.5 19.333h-3.667c-.276 0-.5-.224-.5-.5s.224-.5.5-.5h3.667c.276 0 .5.224.5.5s-.224.5-.5.5z" fill="#f8afa6" data-original="#8ce1eb" style="" class=""/><path d="m21.5 16.667h-3.667c-.276 0-.5-.224-.5-.5s.224-.5.5-.5h3.667c.276 0 .5.224.5.5s-.224.5-.5.5z" fill="#f8afa6" data-original="#8ce1eb" style="" class=""/><path d="m21.5 14h-3.667c-.276 0-.5-.224-.5-.5s.224-.5.5-.5h3.667c.276 0 .5.224.5.5s-.224.5-.5.5z" fill="#f8afa6" data-original="#8ce1eb" style="" class=""/></g><circle cx="13" cy="14.333" fill="#f9f1f0" r="1.667" data-original="#e3f8fa" style="" class=""/><path d="m16 18.833c0 .276-.224.5-.5.5h-5c-.276 0-.5-.224-.5-.5v-.333c0-1.011.822-1.833 1.833-1.833h2.333c1.011 0 1.833.822 1.833 1.833v.333z" fill="#f9f1f0" data-original="#e3f8fa" style="" class=""/></g></g></svg>
