<?xml version="1.0"?>
<svg xmlns="http://www.w3.org/2000/svg" xmlns:xlink="http://www.w3.org/1999/xlink" xmlns:svgjs="http://svgjs.com/svgjs" version="1.1" width="512" height="512" x="0" y="0" viewBox="0 0 512 512" style="enable-background:new 0 0 512 512" xml:space="preserve" class=""><g><path xmlns="http://www.w3.org/2000/svg" d="m416 512h-320c-53.023438 0-96-42.976562-96-96v-320c0-53.023438 42.976562-96 96-96h320c53.023438 0 96 42.976562 96 96v320c0 53.023438-42.976562 96-96 96zm0 0" fill="#f9f1f0" data-original="#fff9dd" style="" class=""/><path xmlns="http://www.w3.org/2000/svg" d="m245.328125 288c-17.648437 0-32-14.351562-32-32s14.351563-32 32-32h53.328125v-66.671875c.015625-16.175781-13.152344-29.328125-29.328125-29.328125h-112c-16.175781 0-29.328125 13.152344-29.328125 29.328125v197.328125c0 16.191406 13.152344 29.34375 29.328125 29.34375h112c16.175781 0 29.328125-13.152344 29.328125-29.328125v-66.671875zm0 0" fill="#f79489" data-original="#ffd200" style="" class=""/><path xmlns="http://www.w3.org/2000/svg" d="m326.574219 308.527344c-3.980469-1.664063-6.574219-5.550782-6.574219-9.855469v-32h-74.671875c-5.886719 0-10.671875-4.785156-10.671875-10.671875s4.785156-10.671875 10.671875-10.671875h74.671875v-32c0-4.320313 2.59375-8.207031 6.574219-9.855469 3.984375-1.648437 8.578125-.738281 11.632812 2.320313l42.671875 42.671875c4.160156 4.160156 4.160156 10.910156 0 15.085937l-42.671875 42.671875c-3.054687 3.042969-7.632812 3.953125-11.632812 2.304688zm0 0" fill="#f8afa6" data-original="#ffe777" style="" class=""/></g></svg>
