<?xml version="1.0"?>
<svg xmlns="http://www.w3.org/2000/svg" xmlns:xlink="http://www.w3.org/1999/xlink" xmlns:svgjs="http://svgjs.com/svgjs" version="1.1" width="512" height="512" x="0" y="0" viewBox="0 0 32 32" style="enable-background:new 0 0 512 512" xml:space="preserve" class=""><g><path xmlns="http://www.w3.org/2000/svg" d="m26 32h-20c-3.314 0-6-2.686-6-6v-20c0-3.314 2.686-6 6-6h20c3.314 0 6 2.686 6 6v20c0 3.314-2.686 6-6 6z" fill="#f9f1f0" data-original="#fff9dd" style="" class=""/><path xmlns="http://www.w3.org/2000/svg" d="m22.167 8h-12.334c-1.011 0-1.833.822-1.833 1.833v12.333c0 1.012.822 1.834 1.833 1.834h12.333c1.012 0 1.834-.822 1.834-1.833v-12.334c0-1.011-.822-1.833-1.833-1.833zm-2.167 12.167c0 .643-.523 1.167-1.167 1.167h-5.667c-.643 0-1.167-.523-1.167-1.167v-6.492l-1.224-1.529c-.12-.15-.144-.356-.06-.529.083-.173.258-.283.451-.283h7.667c.643 0 1.167.523 1.167 1.167z" fill="#f79489" data-original="#ffd200" style="" class=""/><g xmlns="http://www.w3.org/2000/svg" fill="#ffe777"><path d="m17.5 14.667h-3c-.368 0-.667-.298-.667-.667 0-.368.299-.667.667-.667h3c.368 0 .667.298.667.667 0 .368-.299.667-.667.667z" fill="#f8afa6" data-original="#ffe777" style="" class=""/><path d="m17.5 17h-3c-.368 0-.667-.298-.667-.667 0-.368.299-.667.667-.667h3c.368 0 .667.298.667.667s-.299.667-.667.667z" fill="#f8afa6" data-original="#ffe777" style="" class=""/><path d="m17.5 19.333h-3c-.368 0-.667-.298-.667-.667 0-.368.299-.667.667-.667h3c.368 0 .667.298.667.667s-.299.667-.667.667z" fill="#f8afa6" data-original="#ffe777" style="" class=""/></g></g></svg>
