<?xml version="1.0"?>
<svg xmlns="http://www.w3.org/2000/svg" xmlns:xlink="http://www.w3.org/1999/xlink" xmlns:svgjs="http://svgjs.com/svgjs" version="1.1" width="512" height="512" x="0" y="0" viewBox="0 0 32 32" style="enable-background:new 0 0 512 512" xml:space="preserve" class=""><g><g xmlns="http://www.w3.org/2000/svg" id="BG"><path d="m26 32h-20c-3.314 0-6-2.686-6-6v-20c0-3.314 2.686-6 6-6h20c3.314 0 6 2.686 6 6v20c0 3.314-2.686 6-6 6z" fill="#f9f1f0" data-original="#ffe6e2" style="" class=""/></g><g xmlns="http://www.w3.org/2000/svg" id="Layer_1"><g fill="#fc573b"><path d="m18.309 14.333c-.185-.319-.594-.429-.911-.244l-.732.423v-.845c.001-.369-.298-.667-.666-.667s-.667.299-.667.667v.845l-.732-.423c-.318-.185-.727-.075-.911.244s-.075.727.244.911l.732.423-.732.423c-.319.184-.428.592-.244.911.124.214.348.333.578.333.113 0 .228-.029.333-.089l.732-.423v.845c0 .368.298.667.667.667.368 0 .667-.299.667-.667v-.845l.732.423c.105.061.219.089.333.089.23 0 .454-.119.578-.333.184-.319.075-.727-.244-.911l-.732-.423.732-.423c.318-.184.428-.592.243-.911z" fill="#f79489" data-original="#fc573b" style="" class=""/><path d="m12.708 14.333c-.185-.319-.593-.429-.911-.244l-.732.423v-.845c0-.368-.298-.667-.667-.667-.368 0-.667.299-.667.667v.845l-.731-.423c-.319-.185-.727-.075-.911.244s-.075.727.244.911l.732.423-.732.423c-.318.183-.428.591-.244.91.124.214.348.333.578.333.113 0 .228-.029.333-.089l.732-.423v.845c0 .368.298.667.667.667.368 0 .667-.299.667-.667v-.845l.732.423c.105.061.219.089.333.089.23 0 .454-.119.578-.333.184-.319.075-.727-.244-.911l-.732-.423.732-.423c.318-.183.427-.591.243-.91z" fill="#f79489" data-original="#fc573b" style="" class=""/><path d="m23.666 16.089-.732-.423.732-.423c.319-.184.428-.592.244-.911-.185-.319-.593-.429-.911-.244l-.732.423v-.845c0-.368-.298-.667-.667-.667-.368 0-.667.299-.667.667v.845l-.732-.423c-.318-.185-.727-.075-.911.244s-.075.727.244.911l.732.423-.732.423c-.319.184-.428.592-.244.911.124.214.348.333.578.333.113 0 .228-.029.333-.089l.732-.423v.845c0 .368.298.667.667.667.368 0 .667-.299.667-.667v-.845l.733.423c.105.061.219.089.333.089.23 0 .454-.119.578-.333.184-.319.074-.727-.245-.911z" fill="#f79489" data-original="#fc573b" style="" class=""/></g><g><path d="m12 21h-3.333c-.369 0-.667-.298-.667-.667s.298-.667.667-.667h3.333c.368 0 .667.299.667.667s-.299.667-.667.667z" fill="#f8afa6" data-original="#fd907e" style="" class=""/></g><g><path d="m17.667 21h-3.333c-.368 0-.667-.299-.667-.667s.298-.667.667-.667h3.333c.368 0 .667.299.667.667s-.299.667-.667.667z" fill="#f8afa6" data-original="#fd907e" style="" class=""/></g><g><path d="m23.333 21h-3.333c-.368 0-.667-.299-.667-.667s.298-.667.667-.667h3.333c.368 0 .667.299.667.667s-.298.667-.667.667z" fill="#f8afa6" data-original="#fd907e" style="" class=""/></g></g></g></svg>
