<?xml version="1.0"?>
<svg xmlns="http://www.w3.org/2000/svg" xmlns:xlink="http://www.w3.org/1999/xlink" xmlns:svgjs="http://svgjs.com/svgjs" version="1.1" width="512" height="512" x="0" y="0" viewBox="0 0 512 512" style="enable-background:new 0 0 512 512" xml:space="preserve" class=""><g><path xmlns="http://www.w3.org/2000/svg" d="m416 512h-320c-53.023438 0-96-42.976562-96-96v-320c0-53.023438 42.976562-96 96-96h320c53.023438 0 96 42.976562 96 96v320c0 53.023438-42.976562 96-96 96zm0 0" fill="#f9f1f0" data-original="#e3f8fa" style="" class=""/><path xmlns="http://www.w3.org/2000/svg" d="m376 363.105469h-138.671875c-5.886719 0-10.671875-4.785157-10.671875-10.671875 0-5.890625 4.785156-10.671875 10.671875-10.671875h138.671875c5.886719 0 10.671875 4.78125 10.671875 10.671875 0 5.902344-4.785156 10.671875-10.671875 10.671875zm0 0" fill="#f8afa6" data-original="#8ce1eb" style="" class=""/><path xmlns="http://www.w3.org/2000/svg" d="m346.847656 172.671875-15.085937-15.085937c-8.066407-8.066407-22.113281-8.066407-30.160157 0l-22.066406 22.0625 45.25 45.246093 22.0625-22.0625c4.03125-4.03125 6.257813-9.375 6.257813-15.089843 0-5.679688-2.226563-11.039063-6.257813-15.070313zm0 0" fill="#f8afa6" data-original="#8ce1eb" style="" class=""/><path xmlns="http://www.w3.org/2000/svg" d="m264.464844 194.734375-109.9375 109.9375c-.703125.703125-1.199219 1.585937-1.421875 2.542969l-11.632813 49.34375c-.417968 1.792968.113282 3.679687 1.421875 4.992187 1.007813 1.007813 2.371094 1.570313 3.777344 1.570313.398437 0 .816406-.050782 1.214844-.144532l49.34375-11.632812c.960937-.222656 1.859375-.71875 2.546875-1.421875l109.933594-109.9375zm0 0" fill="#f79489" data-original="#26c6da" style="" class=""/></g></svg>
