<?xml version="1.0"?>
<svg xmlns="http://www.w3.org/2000/svg" xmlns:xlink="http://www.w3.org/1999/xlink" xmlns:svgjs="http://svgjs.com/svgjs" version="1.1" width="512" height="512" x="0" y="0" viewBox="0 0 512 512" style="enable-background:new 0 0 512 512" xml:space="preserve" class=""><g><path xmlns="http://www.w3.org/2000/svg" d="m416 512h-320c-53.023438 0-96-42.976562-96-96v-320c0-53.023438 42.976562-96 96-96h320c53.023438 0 96 42.976562 96 96v320c0 53.023438-42.976562 96-96 96zm0 0" fill="#f9f1f0" data-original="#e3f8fa" style="" class=""/><path xmlns="http://www.w3.org/2000/svg" d="m416 512h-320c-53.023438 0-96-42.976562-96-96v-320c0-53.023438 42.976562-96 96-96h320c53.023438 0 96 42.976562 96 96v320c0 53.023438-42.976562 96-96 96zm0 0" fill="#f9f1f0" data-original="#e3f8fa" style="" class=""/><path xmlns="http://www.w3.org/2000/svg" d="m274.128906 178.671875c0 29.453125-23.875 53.328125-53.328125 53.328125s-53.328125-23.875-53.328125-53.328125 23.875-53.328125 53.328125-53.328125 53.328125 23.875 53.328125 53.328125zm0 0" fill="#f79489" data-original="#26c6da" style="" class=""/><path xmlns="http://www.w3.org/2000/svg" d="m247.824219 347.199219c-5.550781-9.632813-4.449219-21.472657 2.160156-29.871094-6.609375-8.382813-7.726563-20.238281-2.160156-29.871094l8.625-14.945312c4.75-8.222657 13.597656-13.328125 23.101562-13.328125 1.296875 0 2.578125.097656 3.855469.273437.355469-.882812.800781-1.695312 1.234375-2.527343-5.746094-2.273438-11.953125-3.617188-18.496094-3.617188h-90.671875c-27.9375.015625-50.671875 22.75-50.671875 50.6875v37.328125c0 4.414063 3.582031 8 8 8h116.253907zm0 0" fill="#f79489" data-original="#26c6da" style="" class=""/><path xmlns="http://www.w3.org/2000/svg" d="m356.304688 322.335938c.207031-1.664063.511718-3.296876.511718-5.007813s-.289062-3.34375-.511718-5.007813l9.597656-7.265624c2.144531-1.613282 2.753906-4.589844 1.394531-6.910157l-8.609375-14.945312c-1.34375-2.335938-4.207031-3.296875-6.6875-2.238281l-11.054688 4.671874c-2.6875-2.046874-5.570312-3.871093-8.738281-5.199218l-1.472656-11.746094c-.335937-2.671875-2.605469-4.671875-5.292969-4.671875h-17.25c-2.6875 0-4.960937 2-5.296875 4.671875l-1.46875 11.746094c-3.167969 1.328125-6.050781 3.132812-8.738281 5.199218l-11.054688-4.671874c-2.480468-1.039063-5.34375-.082032-6.6875 2.238281l-8.625 14.945312c-1.34375 2.335938-.753906 5.296875 1.390626 6.910157l9.601562 7.265624c-.207031 1.664063-.511719 3.296876-.511719 5.007813s.289063 3.34375.511719 5.007813l-9.601562 7.265624c-2.144532 1.613282-2.75 4.589844-1.390626 6.910157l8.625 14.945312c1.34375 2.335938 4.207032 3.296875 6.6875 2.238281l11.054688-4.671874c2.6875 2.046874 5.570312 3.871093 8.738281 5.199218l1.46875 11.746094c.335938 2.671875 2.609375 4.671875 5.296875 4.671875h17.25c2.6875 0 4.957032-2 5.292969-4.671875l1.472656-11.746094c3.167969-1.328125 6.050781-3.132812 8.738281-5.199218l11.054688 4.671874c2.480469 1.039063 5.34375.082032 6.6875-2.238281l8.625-14.945312c1.34375-2.335938.75-5.296875-1.390625-6.910157zm-39.503907 16.335937c-11.777343 0-21.328125-9.550781-21.328125-21.328125s9.550782-21.328125 21.328125-21.328125c11.773438 0 21.328125 9.550781 21.328125 21.328125.015625 11.777344-9.535156 21.328125-21.328125 21.328125zm0 0" fill="#f8afa6" data-original="#8ce1eb" style="" class=""/></g></svg>
