<?xml version="1.0"?>
<svg xmlns="http://www.w3.org/2000/svg" xmlns:xlink="http://www.w3.org/1999/xlink" xmlns:svgjs="http://svgjs.com/svgjs" version="1.1" width="512" height="512" x="0" y="0" viewBox="0 0 32 32" style="enable-background:new 0 0 512 512" xml:space="preserve" class=""><g><rect xmlns="http://www.w3.org/2000/svg" fill="#ffffff" height="30" rx="6" width="30" x="1" y="1" data-original="#e3f8fb" style="" class=""/><g xmlns="http://www.w3.org/2000/svg" clip-rule="evenodd" fill-rule="evenodd"><path d="m16 8c-4.4183 0-8 3.5817-8 8s3.5817 8 8 8 8-3.5817 8-8-3.5817-8-8-8z" fill="#093c70" data-original="#25c6da" style="" class=""/><path d="m16.3495 12.6286c.218-.218.5714-.218.7894 0l2.6046 2.6046c.2078.2078.2189.5411.0254.7622l-2.6047 2.9768c-.2029.232-.5556.2555-.7875.0525-.232-.203-.2555-.5556-.0525-.7876l1.7946-2.0511h-5.8397c-.3083 0-.5582-.2498-.5582-.5581 0-.3082.2499-.5581.5582-.5581h5.7223l-1.6519-1.6519c-.2179-.2179-.2179-.5713 0-.7893z" fill="#90c3f6" data-original="#8de2ec" style="" class=""/></g></g></svg>
